<mxfile host="app.diagrams.net" modified="2022-04-11T04:06:59.580Z" agent="5.0 (Windows NT 10.0; Win64; x64) AppleWebKit/537.36 (KHTML, like Gecko) Chrome/100.0.4896.60 Safari/537.36 Edg/100.0.1185.29" etag="lPI01SUEFpbR3lLGpdM-" version="17.4.1" type="github">
  <diagram id="QDMvEGcDQInV7e4ZOKq8" name="Page-1">
    <mxGraphModel dx="1523" dy="855" grid="1" gridSize="10" guides="1" tooltips="1" connect="1" arrows="1" fold="1" page="1" pageScale="1" pageWidth="1100" pageHeight="850" math="0" shadow="0">
      <root>
        <mxCell id="0" />
        <mxCell id="1" parent="0" />
        <mxCell id="SH-dGV89EBzhoB-bODvq-2" value="" style="endArrow=none;dashed=1;html=1;dashPattern=1 3;strokeWidth=2;rounded=0;" parent="1" edge="1">
          <mxGeometry width="50" height="50" relative="1" as="geometry">
            <mxPoint x="160" y="720" as="sourcePoint" />
            <mxPoint x="160" y="40" as="targetPoint" />
          </mxGeometry>
        </mxCell>
        <mxCell id="SH-dGV89EBzhoB-bODvq-3" value="Front End" style="text;html=1;align=center;verticalAlign=middle;resizable=0;points=[];autosize=1;strokeColor=none;fillColor=none;" parent="1" vertex="1">
          <mxGeometry x="25" y="50" width="70" height="20" as="geometry" />
        </mxCell>
        <mxCell id="SH-dGV89EBzhoB-bODvq-4" value="" style="endArrow=none;dashed=1;html=1;dashPattern=1 3;strokeWidth=2;rounded=0;" parent="1" edge="1">
          <mxGeometry width="50" height="50" relative="1" as="geometry">
            <mxPoint x="355" y="720" as="sourcePoint" />
            <mxPoint x="355" y="40" as="targetPoint" />
          </mxGeometry>
        </mxCell>
        <mxCell id="SH-dGV89EBzhoB-bODvq-5" value="API Layer" style="text;html=1;align=center;verticalAlign=middle;resizable=0;points=[];autosize=1;strokeColor=none;fillColor=none;" parent="1" vertex="1">
          <mxGeometry x="220" y="50" width="70" height="20" as="geometry" />
        </mxCell>
        <mxCell id="SH-dGV89EBzhoB-bODvq-6" value="" style="endArrow=none;dashed=1;html=1;dashPattern=1 3;strokeWidth=2;rounded=0;" parent="1" edge="1">
          <mxGeometry width="50" height="50" relative="1" as="geometry">
            <mxPoint x="845" y="720" as="sourcePoint" />
            <mxPoint x="845" y="40" as="targetPoint" />
          </mxGeometry>
        </mxCell>
        <mxCell id="SH-dGV89EBzhoB-bODvq-7" value="Business Layer" style="text;html=1;align=center;verticalAlign=middle;resizable=0;points=[];autosize=1;strokeColor=none;fillColor=none;" parent="1" vertex="1">
          <mxGeometry x="535" y="50" width="100" height="20" as="geometry" />
        </mxCell>
        <mxCell id="SH-dGV89EBzhoB-bODvq-8" value="Persistance" style="text;html=1;align=center;verticalAlign=middle;resizable=0;points=[];autosize=1;strokeColor=none;fillColor=none;" parent="1" vertex="1">
          <mxGeometry x="940" y="50" width="80" height="20" as="geometry" />
        </mxCell>
        <mxCell id="SH-dGV89EBzhoB-bODvq-9" value="Postgres" style="shape=datastore;whiteSpace=wrap;html=1;" parent="1" vertex="1">
          <mxGeometry x="950" y="100" width="60" height="60" as="geometry" />
        </mxCell>
        <mxCell id="SH-dGV89EBzhoB-bODvq-10" value="" style="shape=display;whiteSpace=wrap;html=1;" parent="1" vertex="1">
          <mxGeometry x="30" y="120" width="80" height="40" as="geometry" />
        </mxCell>
        <mxCell id="SH-dGV89EBzhoB-bODvq-11" value="API Gateway" style="shape=switch;whiteSpace=wrap;html=1;" parent="1" vertex="1">
          <mxGeometry x="170" y="100" width="170" height="70" as="geometry" />
        </mxCell>
        <mxCell id="SH-dGV89EBzhoB-bODvq-12" value="Authentication Service" style="verticalLabelPosition=bottom;verticalAlign=top;html=1;shape=mxgraph.basic.diag_snip_rect;dx=6;fontStyle=0" parent="1" vertex="1">
          <mxGeometry x="530" y="110" width="100" height="60" as="geometry" />
        </mxCell>
        <mxCell id="SH-dGV89EBzhoB-bODvq-13" value="MetaData Service" style="verticalLabelPosition=bottom;verticalAlign=top;html=1;shape=mxgraph.basic.diag_snip_rect;dx=6;fontStyle=0" parent="1" vertex="1">
          <mxGeometry x="530" y="220" width="100" height="60" as="geometry" />
        </mxCell>
        <mxCell id="SH-dGV89EBzhoB-bODvq-14" value="LDAP" style="ellipse;whiteSpace=wrap;html=1;" parent="1" vertex="1">
          <mxGeometry x="690" y="70" width="80" height="50" as="geometry" />
        </mxCell>
        <mxCell id="SH-dGV89EBzhoB-bODvq-17" value="Data Extractor" style="verticalLabelPosition=bottom;verticalAlign=top;html=1;shape=mxgraph.basic.diag_snip_rect;dx=6;fontStyle=0" parent="1" vertex="1">
          <mxGeometry x="535" y="320" width="100" height="60" as="geometry" />
        </mxCell>
        <mxCell id="SH-dGV89EBzhoB-bODvq-18" value="Oracle" style="shape=datastore;whiteSpace=wrap;html=1;" parent="1" vertex="1">
          <mxGeometry x="950" y="205" width="60" height="60" as="geometry" />
        </mxCell>
        <mxCell id="SH-dGV89EBzhoB-bODvq-19" value="Couchbase" style="shape=datastore;whiteSpace=wrap;html=1;" parent="1" vertex="1">
          <mxGeometry x="950" y="285" width="60" height="60" as="geometry" />
        </mxCell>
        <mxCell id="SH-dGV89EBzhoB-bODvq-20" value="HBase" style="shape=datastore;whiteSpace=wrap;html=1;" parent="1" vertex="1">
          <mxGeometry x="950" y="365" width="60" height="60" as="geometry" />
        </mxCell>
        <mxCell id="SH-dGV89EBzhoB-bODvq-21" value="Data Processor" style="verticalLabelPosition=bottom;verticalAlign=top;html=1;shape=mxgraph.basic.diag_snip_rect;dx=6;fontStyle=0" parent="1" vertex="1">
          <mxGeometry x="535" y="420" width="100" height="60" as="geometry" />
        </mxCell>
        <mxCell id="SH-dGV89EBzhoB-bODvq-22" value="Kafka" style="shape=tapeData;whiteSpace=wrap;html=1;perimeter=ellipsePerimeter;" parent="1" vertex="1">
          <mxGeometry x="950" y="490" width="60" height="60" as="geometry" />
        </mxCell>
        <mxCell id="SH-dGV89EBzhoB-bODvq-23" value="Data Deliverer" style="verticalLabelPosition=bottom;verticalAlign=top;html=1;shape=mxgraph.basic.diag_snip_rect;dx=6;fontStyle=0" parent="1" vertex="1">
          <mxGeometry x="535" y="520" width="100" height="60" as="geometry" />
        </mxCell>
        <mxCell id="Rc8lkH4BCxZ4SBaeGgcu-1" value="Database Manager" style="verticalLabelPosition=bottom;verticalAlign=top;html=1;shape=mxgraph.basic.diag_snip_rect;dx=6;fontStyle=0" vertex="1" parent="1">
          <mxGeometry x="710" y="320" width="100" height="60" as="geometry" />
        </mxCell>
      </root>
    </mxGraphModel>
  </diagram>
</mxfile>
